<svg xmlns="http://www.w3.org/2000/svg" viewBox="0 0 1440 320" preserveAspectRatio="none">
  <path fill="#005fae" fill-opacity="0.05"
    d="M0,160L48,176C96,192,192,224,288,224C384,224,480,192,576,165.3C672,139,768,117,864,138.7C960,160,1056,224,1152,240C1248,256,1344,224,1392,208L1440,192L1440,320L0,320Z"/>
  <path fill="#005fae" fill-opacity="0.10"
    d="M0,224L48,208C96,192,192,160,288,144C384,128,480,128,576,149.3C672,171,768,213,864,213.3C960,213,1056,171,1152,149.3C1248,128,1344,128,1392,128L1440,128L1440,320L0,320Z"/>
</svg>
